<?xml version="1.0" encoding="UTF-8" standalone="no"?>
<!-- Created with Inkscape (http://www.inkscape.org/) -->

<svg
   version="1.1"
   id="svg2"
   width="1823.8763"
   height="808.42822"
   viewBox="0 0 1823.8763 808.42821"
   sodipodi:docname="logo_black.svg"
   inkscape:version="1.2.1 (9c6d41e410, 2022-07-14)"
   xmlns:inkscape="http://www.inkscape.org/namespaces/inkscape"
   xmlns:sodipodi="http://sodipodi.sourceforge.net/DTD/sodipodi-0.dtd"
   xmlns:xlink="http://www.w3.org/1999/xlink"
   xmlns="http://www.w3.org/2000/svg"
   xmlns:svg="http://www.w3.org/2000/svg">
  <defs
     id="defs6" />
  <sodipodi:namedview
     id="namedview4"
     pagecolor="#ffffff"
     bordercolor="#000000"
     borderopacity="0.25"
     inkscape:showpageshadow="2"
     inkscape:pageopacity="0.0"
     inkscape:pagecheckerboard="0"
     inkscape:deskcolor="#d1d1d1"
     showgrid="false"
     inkscape:zoom="0.5"
     inkscape:cx="1108"
     inkscape:cy="376"
     inkscape:window-width="1920"
     inkscape:window-height="1009"
     inkscape:window-x="-8"
     inkscape:window-y="-8"
     inkscape:window-maximized="1"
     inkscape:current-layer="g8" />
  <g
     inkscape:groupmode="layer"
     inkscape:label="Image"
     id="g8"
     transform="translate(0,-2.8284271)">
    <ellipse
       style="fill:#000000;fill-opacity:1;stroke:#000000;stroke-width:8.4;stroke-dasharray:none;stroke-opacity:1"
       id="path1263"
       cx="149.52872"
       cy="664.04559"
       rx="22.626778"
       ry="20.924177" />
    <ellipse
       style="fill:#000000;fill-opacity:1;stroke:#000000;stroke-width:8.4;stroke-dasharray:none;stroke-opacity:1"
       id="path1265"
       cx="1706.4203"
       cy="663.31354"
       rx="19.964804"
       ry="19.582102" />
    <path
       style="fill:none;fill-opacity:1;stroke:#000000;stroke-width:20;stroke-dasharray:none;stroke-opacity:1"
       d="m 21.445161,756.65056 c 0,0 151.834999,-689.191355 869.963169,-687.312382 808.36237,2.115074 910.47137,689.276172 910.47137,689.276172"
       id="path3686"
       sodipodi:nodetypes="csc" />
    <path
       style="fill:none;fill-opacity:1;stroke:none;stroke-width:8.4;stroke-dasharray:none;stroke-opacity:1"
       d="m 397.08715,587.12662 c 0,0 88.5935,-260.25653 507.61074,-259.54698 471.66761,0.79873 531.24671,260.28862 531.24671,260.28862"
       id="path3686-8"
       sodipodi:nodetypes="csc" />
    <text
       xml:space="preserve"
       style="font-style:normal;font-variant:normal;font-weight:normal;font-stretch:normal;font-size:293.256px;font-family:Caladea;-inkscape-font-specification:Caladea;letter-spacing:21.5543px;fill:none;fill-opacity:1;stroke:#000000;stroke-width:8.4;stroke-dasharray:none;stroke-opacity:1"
       id="text4463"
       transform="matrix(0.99879768,0.04943012,-0.04861661,0.99879772,50.531687,-43.370207)"><textPath
         xlink:href="#path3686-8"
         id="textPath4465"
         style="font-style:normal;font-variant:normal;font-weight:normal;font-stretch:normal;font-size:293.256px;font-family:Century;-inkscape-font-specification:Century;fill:#000000;fill-opacity:1;stroke-width:8.4;stroke-dasharray:none">ОТЕЛЬ</textPath></text>
    <text
       xml:space="preserve"
       style="font-style:normal;font-variant:normal;font-weight:normal;font-stretch:normal;font-size:185.327px;line-height:0;font-family:Century;-inkscape-font-specification:Century;letter-spacing:-3.82237px;fill:#000000;fill-opacity:1;stroke:none;stroke-width:8.4;stroke-dasharray:none;stroke-opacity:1"
       x="151.65747"
       y="844.49408"
       id="text4476"
       transform="scale(1.190358,0.84008343)"><tspan
         sodipodi:role="line"
         id="tspan4474"
         x="151.65747"
         y="844.49408"
         style="font-style:normal;font-variant:normal;font-weight:bold;font-stretch:normal;font-size:185.327px;font-family:Cambria;-inkscape-font-specification:'Cambria Bold';stroke-width:8.4;stroke-dasharray:none"
         rotate="0 0 0 0 0">ДЯДЯ</tspan></text>
    <text
       xml:space="preserve"
       style="font-style:normal;font-variant:normal;font-weight:normal;font-stretch:normal;font-size:185.327px;line-height:0;font-family:Century;-inkscape-font-specification:Century;letter-spacing:-3.82237px;fill:#000000;fill-opacity:1;stroke:none;stroke-width:8.4;stroke-dasharray:none;stroke-opacity:1"
       x="919.03564"
       y="841.37042"
       id="text4476-7"
       transform="scale(1.190358,0.84008343)"><tspan
         sodipodi:role="line"
         id="tspan4474-1"
         x="919.03564"
         y="841.37042"
         style="font-style:normal;font-variant:normal;font-weight:bold;font-stretch:normal;font-size:185.327px;font-family:Cambria;-inkscape-font-specification:'Cambria Bold';stroke-width:8.4;stroke-dasharray:none"
         rotate="0 0 0 0 0">ВАНЯ</tspan></text>
    <path
       style="fill:#000000;fill-opacity:1;stroke:#000000;stroke-width:20;stroke-dasharray:none;stroke-opacity:1"
       d="M 13.632808,759.04514 H 1811.8281"
       id="path4505" />
    <path
       style="fill:#000000;stroke:#000000;stroke-width:8.4;stroke-dasharray:none"
       d="m 913.63534,440.95294 c 0.45996,-0.66919 0.52786,-0.69271 0.36896,-0.12975 -0.1829,0.64777 -0.0318,0.67836 2.43425,0.49549 1.90513,-0.14201 3.31698,-0.51294 5.12642,-1.34812 1.48874,-0.68653 2.54488,-0.99716 2.61523,-0.76835 0.17632,0.57312 1.07019,0.46379 1.07019,-0.12976 0,-0.59057 2.29361,-1.12815 3.31446,-0.77653 0.86309,0.29728 7.00183,-0.83671 8.241,-1.52272 0.5582,-0.30854 1.3769,-0.44856 1.92644,-0.32996 0.58919,0.12765 1.54934,-0.0618 2.50338,-0.51183 0.85105,-0.39545 2.17667,-0.82037 2.94582,-0.94405 0.76913,-0.12368 1.55774,-0.43829 1.75234,-0.69879 0.19439,-0.2605 0.57244,-0.45055 0.83998,-0.42095 0.26744,0.0309 1.12889,-0.0817 1.91437,-0.24217 1.08694,-0.22472 1.42807,-0.46281 1.42807,-0.99308 0,-0.45364 -0.23458,-0.6968 -0.6721,-0.6968 -0.36961,0 -0.67428,0.20429 -0.67713,0.45562 -0.003,0.33515 -0.0712,0.34432 -0.2532,0.0409 -0.13635,-0.2319 -0.70101,-0.48632 -1.25493,-0.56296 -0.5536,-0.0817 0.32559,-0.27585 1.95397,-0.44237 1.62848,-0.16653 3.55655,-0.21556 4.28448,-0.10933 1.59896,0.23301 4.93172,-0.64468 5.85953,-1.54264 0.36907,-0.35757 1.27652,-0.74992 2.01509,-0.8725 0.73813,-0.12158 1.52971,-0.49858 1.75772,-0.83781 0.2508,-0.37192 1.15244,-0.72342 2.27957,-0.88994 2.94641,-0.43321 9.2463,-3.86341 13.52135,-7.36117 0.97031,-0.79386 1.76408,-1.59516 1.76408,-1.78059 0,-0.18596 0.34059,-0.71723 0.75675,-1.1821 1.12045,-1.25208 1.61097,-2.30083 1.38055,-2.95196 -0.12156,-0.34222 0.0438,-0.77951 0.41616,-1.07115 0.51582,-0.40969 0.55634,-0.63651 0.24094,-1.34925 -0.73814,-1.66687 -1.44178,-3.95464 -1.21541,-3.95464 0.12595,0 -0.002,-0.2043 -0.28583,-0.45563 -0.28255,-0.25034 -0.77975,-1.24279 -1.10644,-2.20481 -0.32636,-0.96547 -0.76551,-1.68272 -0.97797,-1.60088 -0.40193,0.15427 -0.40959,0.54253 -0.0329,2.07443 l 0.21794,0.91136 -0.66586,-0.88993 c -1.10797,-1.4789 -1.86954,-5.12347 -1.06997,-5.12347 0.18509,0 0.33622,-0.23709 0.33622,-0.52619 0,-0.56605 -1.30236,-3.16458 -1.76036,-3.51246 -0.15332,-0.1165 -0.18508,-0.47307 -0.0657,-0.79287 0.1358,-0.38109 -0.0986,-0.79795 -0.6779,-1.20947 -0.48625,-0.34531 -1.10654,-1.09556 -1.37913,-1.66729 -0.35592,-0.74583 -0.74689,-1.03913 -1.38647,-1.03913 -0.58809,0 -1.19043,-0.38926 -1.76977,-1.14195 -0.97031,-1.26096 -1.60364,-1.37856 -4.79853,-0.89093 -1.61065,0.24626 -1.93219,0.20429 -1.93219,-0.24935 0,-0.29937 0.2267,-0.74781 0.50377,-0.99815 0.56182,-0.50576 0.67352,-1.66577 0.19166,-1.98861 -0.17194,-0.11441 -1.46916,-0.24725 -2.88322,-0.29529 -2.91991,-0.1027 -3.52498,0.33824 -3.52498,2.53532 v 1.20591 h -2.66492 c -2.4977,0 -2.67157,-0.0508 -2.77223,-0.81021 -0.25254,-1.90494 -4.64406,-3.17307 -6.65986,-1.92323 -0.46194,0.28612 -1.34221,0.52619 -1.95584,0.53337 -1.13288,0.0102 -6.81732,1.1072 -7.10722,1.36805 -0.0876,0.0817 0.0646,0.2902 0.33336,0.47197 0.36896,0.24724 0.39535,0.4332 0.10733,0.74583 -0.28748,0.31262 -0.68765,0.29727 -1.59773,-0.0618 -1.03831,-0.4066 -1.52503,-0.38617 -3.36478,0.1451 -1.18302,0.34122 -2.53176,0.62226 -2.99719,0.62226 -0.58985,0 -0.91182,0.24924 -1.06252,0.82037 -0.11882,0.45055 -0.61624,1.84506 -1.10549,3.09796 l -0.88927,2.27785 H 924.21 920.95646 l 0.18738,-1.51454 0.18738,-1.51455 -1.87082,0.23808 c -2.40474,0.30655 -2.8639,0.51183 -3.12297,1.39737 -0.1634,0.55987 -0.40182,0.67427 -1.03985,0.50068 -0.45482,-0.12368 -1.65058,0.0618 -2.65657,0.40052 -1.81111,0.61917 -2.37656,1.19058 -1.2411,1.25402 0.32372,0.0102 0.0569,0.18695 -0.58799,0.3749 -0.6468,0.18795 -2.70218,0.91954 -4.56732,1.62643 l -3.39122,1.28488 -1.12228,2.16414 c -0.61701,1.19027 -1.412,2.26375 -1.76609,2.38574 -0.5098,0.1747 -0.59434,0.42294 -0.40828,1.18792 0.12923,0.53127 0.28682,2.19643 0.35012,3.69995 0.28683,6.85962 0.45417,9.00312 0.77077,9.8457 0.18673,0.49859 0.51626,2.87391 0.73157,5.27938 0.4374,4.88326 1.80311,13.03583 2.05172,12.24484 0.0887,-0.28093 0.15321,0.37093 0.14347,1.44947 -0.0131,1.88819 0.0197,1.9695 0.991,2.19928 0.55426,0.13185 2.69081,0.25752 4.74737,0.28204 3.51023,0.0409 3.77389,-0.007 4.30321,-0.77653 z"
       id="path14159" />
    <path
       style="fill:#000000;stroke:#000000;stroke-width:8.4;stroke-dasharray:none"
       d="m 856.8689,686.68079 c -0.43346,-0.19546 0.37597,-0.31252 2.28141,-0.32908 3.54096,-0.0331 9.22818,-0.68024 10.03008,-1.14602 0.3166,-0.18442 2.2124,-0.6692 4.21287,-1.07888 4.77802,-0.9784 8.26052,-1.85685 8.67768,-2.18769 0.18487,-0.14687 0.82739,-0.38098 1.42808,-0.52012 0.75259,-0.17447 1.09209,-0.46159 1.09209,-0.92428 0,-0.96404 1.72169,-1.45356 4.67566,-1.3269 2.32299,0.0994 2.5645,0.0442 3.57262,-0.92208 0.59435,-0.56649 1.45075,-1.02919 1.90236,-1.02919 0.45164,0 1.16892,-0.40195 1.59397,-0.89226 0.42514,-0.4914 1.19704,-0.99274 1.71544,-1.11675 0.51877,-0.12368 1.08409,-0.41853 1.25686,-0.65595 0.542,-0.74539 0.65074,-2.32583 0.22035,-3.19799 -0.37159,-0.75312 -0.27335,-1.01925 0.97742,-2.64729 2.82895,-3.68112 4.42073,-4.97103 6.14819,-4.98285 0.70999,-0.004 1.89582,-0.18662 2.63512,-0.40306 0.73923,-0.21754 1.75996,-0.38429 2.26816,-0.36993 0.76792,0.0221 0.92409,-0.13031 0.92409,-0.88784 0,-0.51791 0.18158,-0.88674 0.41999,-0.85361 0.93625,0.13141 1.26005,-0.0663 1.26005,-0.75643 0,-0.40417 0.22417,-0.72883 0.50388,-0.72883 0.73288,0 0.61766,-1.00268 -0.168,-1.45787 -1.19737,-0.69459 -0.83823,-1.70037 0.70287,-1.96771 1.67856,-0.29153 3.99775,-1.52822 4.0117,-2.13988 0.004,-0.24625 0.16405,-0.16122 0.35275,0.18883 0.46128,0.85913 0.84469,0.80392 1.91649,-0.27275 0.49808,-0.50024 1.16622,-0.91104 1.48435,-0.91104 0.31847,0 0.84886,-0.30809 1.17952,-0.68686 0.33085,-0.37766 1.09253,-0.8006 1.69322,-0.93974 0.6008,-0.14024 1.09209,-0.413 1.09209,-0.60846 0,-0.19435 0.50454,0.0663 1.1217,0.57423 0.61701,0.51128 1.21223,0.82931 1.32283,0.70895 0.11105,-0.11927 0.88817,0.54882 1.72785,1.48569 0.83966,0.93643 1.6834,1.59878 1.8749,1.47046 0.19121,-0.12809 0.26108,-0.38649 0.15507,-0.57312 -0.10623,-0.18662 -0.0646,-0.33901 0.0953,-0.33901 0.48198,0 1.09505,0.83704 1.09505,1.49431 0,0.6184 3.05887,3.88464 4.68606,5.00449 0.47234,0.32465 1.84123,1.66492 3.0426,2.9778 1.2013,1.31299 3.18815,3.2849 4.41531,4.38233 1.22706,1.09766 3.56267,3.59918 5.19031,5.55972 1.62751,1.96043 3.29895,3.65694 3.71425,3.77002 2.29634,0.62502 1.82619,-2.72117 -0.57113,-4.06574 -1.28445,-0.71999 -1.24543,-1.01705 0.20863,-1.58719 1.42497,-0.55876 2.07151,-1.78197 1.52613,-2.88714 -0.20359,-0.413 -0.37027,-1.15308 -0.37027,-1.64449 0,-1.20311 -0.86846,-3.01303 -1.13708,-2.36934 -0.1105,0.26502 -0.1105,0.0883 8e-5,-0.38429 0.26875,-1.1574 -0.25517,-1.43535 -2.12512,-1.12758 -1.87522,0.30809 -2.45028,1.04906 -2.45028,3.15614 0,1.38797 -0.41868,2.11359 -0.72817,1.26241 -0.0646,-0.17006 -0.56532,-0.53999 -1.12008,-0.82489 -0.65775,-0.33681 -1.14088,-0.95852 -1.39015,-1.78772 l -0.38177,-1.27136 1.89422,-0.22859 c 2.61527,-0.31582 2.80775,-0.44502 3.90851,-2.65303 l 0.9714,-1.94773 -1.05091,-2.87013 c -0.83845,-2.28973 -0.95344,-2.89399 -0.5686,-2.98796 0.63179,-0.1546 0.61832,-1.31012 -0.0197,-1.88667 -0.27718,-0.24956 -0.50574,-1.04906 -0.50848,-1.7759 -0.006,-1.90544 -0.3211,-2.90635 -0.95399,-3.03909 -0.39929,-0.0773 -0.55897,-0.52122 -0.57309,-1.56852 -0.0197,-1.68579 -1.63397,-9.4226 -2.3493,-11.27956 -0.26809,-0.6968 -0.48778,-1.60982 -0.48778,-2.03066 0,-0.57422 -0.15322,-0.71226 -0.61055,-0.55435 -0.38769,0.13362 -0.86047,-0.0883 -1.29415,-0.61287 -1.12563,-1.35595 -1.22914,-1.74962 -0.59313,-2.25395 0.94325,-0.7476 0.93548,-2.012 -0.0197,-2.97073 -0.46456,-0.46711 -0.84633,-1.14348 -0.84885,-1.50392 -0.003,-0.36 -0.0953,-1.02367 -0.20732,-1.47521 -0.14861,-0.60294 -0.0569,-0.82048 0.3406,-0.82048 0.66969,0 0.69542,-0.81054 0.0679,-2.12651 -0.26175,-0.54883 -0.58087,-1.60739 -0.70999,-2.35389 -0.12923,-0.74649 -0.49939,-1.72499 -0.82257,-2.17432 -0.32308,-0.44944 -0.69587,-1.80075 -0.82783,-3.00353 -0.34049,-3.10281 -0.88292,-5.3223 -1.55839,-6.37811 -0.32044,-0.50023 -0.75139,-2.21021 -0.95717,-3.79806 -0.2061,-1.58762 -0.50519,-3.06371 -0.66486,-3.28004 -0.16023,-0.21644 -0.39733,-0.93312 -0.52721,-1.59226 -0.19187,-0.97508 -0.3579,-1.15696 -0.88872,-0.97508 -0.42832,0.14687 -0.9253,-0.0663 -1.44662,-0.60404 -0.7401,-0.773 -0.75905,-0.88784 -0.27773,-1.68425 0.41353,-0.68355 0.47223,-1.48272 0.2946,-3.99142 -0.28047,-3.95476 -0.73156,-5.07406 -1.98118,-4.91449 -0.73441,0.0883 -0.91763,-0.0331 -0.91763,-0.62502 0,-0.40748 0.29197,-0.91103 0.64866,-1.11875 0.54341,-0.31582 0.59949,-0.56318 0.34629,-1.52092 -0.16603,-0.62944 -0.54342,-1.43269 -0.83736,-1.78518 -0.38506,-0.46049 -0.4212,-0.68134 -0.12846,-0.78735 0.43478,-0.15681 -0.61559,-3.70552 -1.57086,-5.30463 -0.2727,-0.45607 -0.33665,-0.82048 -0.14599,-0.82048 0.51549,0 0.41408,-0.94085 -0.15693,-1.45445 -0.27521,-0.24736 -0.42832,-0.57643 -0.34114,-0.72993 0.0876,-0.1546 -0.22473,-1.06232 -0.69433,-2.02039 -0.61756,-1.26043 -0.74372,-1.81455 -0.45613,-2.00747 0.21837,-0.14687 0.29339,-0.44834 0.16668,-0.6714 -0.14084,-0.24736 0.0383,-0.40527 0.45996,-0.40527 0.3798,0 1.29622,-0.593 2.03603,-1.31807 0.73978,-0.72441 1.34505,-1.21118 1.34505,-1.08109 0,0.1303 0.4535,-0.26613 1.00809,-0.88122 0.55426,-0.61508 1.00809,-1.26341 1.00809,-1.44064 0,-0.67251 2.36107,-1.91604 3.20321,-1.68679 0.90176,0.24515 2.67196,-0.60294 4.32021,-2.07053 l 0.97086,-0.86465 -1.80512,-0.84146 c -1.0404,-0.48588 -2.55448,-0.86134 -3.57445,-0.88674 -0.97315,-0.0331 -1.76969,-0.17005 -1.77002,-0.32465 -3.2e-4,-0.1546 -0.3786,-0.17779 -0.84064,-0.0552 -0.51746,0.14135 -0.8401,0.0663 -0.8401,-0.17447 0,-0.65926 -0.93395,-0.45938 -1.42819,0.30588 -0.4431,0.68576 -0.50202,0.66699 -1.75854,-0.54551 -1.2212,-1.17849 -1.33736,-1.21813 -1.91295,-0.65263 -0.57693,0.56649 -0.61307,0.55103 -0.61504,-0.27497 -9.1e-4,-0.48257 -0.21958,-1.32911 -0.48581,-1.88224 -0.47355,-0.98502 -0.4581,-1.01815 0.75818,-1.62087 0.68305,-0.33791 1.37813,-0.68686 1.54475,-0.7741 0.16668,-0.0883 0.21837,0.19104 0.11499,0.61951 -0.10295,0.42846 -0.0745,0.77741 0.0646,0.77741 0.40127,0 1.66681,-2.99183 1.77289,-4.19141 0.092,-1.04685 0.17894,-1.10317 2.0543,-1.32138 1.07665,-0.12589 2.12764,-0.413 2.33534,-0.63717 0.20798,-0.22527 0.24554,-0.40969 0.0843,-0.40969 -0.16142,0 0.0657,-0.41521 0.5052,-0.92207 0.43937,-0.50797 0.80614,-1.35793 0.81457,-1.89031 0.0131,-0.79287 0.22604,-1.02698 1.17927,-1.29465 1.25292,-0.35227 3.03653,-1.57681 3.03653,-2.08511 0,-0.17116 -0.39798,-0.82489 -0.88423,-1.45135 -0.76004,-0.9795 -1.03142,-1.10506 -1.93221,-0.89336 -0.57638,0.13582 -1.34613,0.47152 -1.71071,0.74649 -0.36436,0.27496 -0.94588,0.50024 -1.29195,0.50024 -1.01773,0 -5.26979,1.49895 -5.26979,1.85784 0,0.1811 -0.36884,0.32907 -0.82027,0.32907 -0.45098,0 -0.91522,0.16675 -1.03131,0.36994 -0.1163,0.20429 -0.33599,0.28711 -0.48909,0.18441 -0.15322,-0.0994 -0.69849,0.0552 -1.21281,0.34012 -0.51429,0.29043 -1.05913,0.44392 -1.21106,0.34012 -0.15179,-0.0994 -0.27598,-0.0442 -0.27598,0.15349 0,0.18552 -0.64275,0.44834 -1.42813,0.58417 -0.78544,0.13582 -1.7305,0.29926 -2.10018,0.36551 -0.36961,0.0663 -0.93668,0.14025 -1.26008,0.16675 -0.32373,0.0331 -0.58799,0.29264 -0.58799,0.5941 0,0.34785 -0.32242,0.54662 -0.88511,0.54662 -0.9748,0 -3.55369,0.74429 -3.81929,1.10207 -0.092,0.12479 -1.15091,0.51791 -2.35221,0.8757 -1.20123,0.35668 -2.41804,0.87348 -2.70393,1.14768 -1.1082,1.06342 -3.77001,2.34195 -4.87439,2.34195 -0.63705,0 -1.15833,0.16233 -1.15833,0.3611 0,0.19877 -0.52721,0.73104 -1.17191,1.18456 -0.64471,0.45386 -1.17384,1.03472 -1.17611,1.29301 -0.002,0.2584 -0.62281,1.16037 -1.37935,2.0046 -0.75631,0.84367 -1.51245,1.91449 -1.68016,2.3785 -0.41934,1.16005 -0.38254,3.23831 0.0734,4.16248 0.32373,0.65484 0.25003,0.86796 -0.50388,1.46438 -0.73485,0.57975 -0.88247,0.98171 -0.88247,2.39817 0,0.93532 -0.22407,2.84893 -0.49808,4.25203 -0.29394,1.5048 -0.41419,3.26006 -0.29274,4.27986 0.11302,0.95078 0.0646,1.93492 -0.10732,2.18669 -0.17183,0.25178 -0.35538,1.01152 -0.40828,1.68701 -0.0515,0.67582 -0.28748,2.0289 -0.5214,3.00674 -0.23382,0.97728 -0.29657,1.77789 -0.13821,1.77789 0.1577,0 0.28682,0.57864 0.28682,1.28461 0,1.01152 -0.16734,1.35351 -0.78665,1.60904 -0.85553,0.35227 -2.35272,3.35028 -2.74165,5.48894 -0.35789,1.96827 -1.81882,4.99797 -2.7184,5.63713 -0.44507,0.31692 -0.80987,0.74759 -0.80987,0.95741 0,0.45054 -0.83911,1.42065 -1.23606,1.42971 -0.4581,0.007 -1.67533,1.57548 -1.94422,2.49954 -0.1738,0.5952 -0.13569,0.78735 0.12025,0.61618 0.2475,-0.16674 0.37027,0.21534 0.36698,1.13885 -0.006,1.79854 -0.40444,2.45879 -1.32513,2.19774 -0.50005,-0.14245 -0.78063,-0.0103 -0.89891,0.40196 -0.0953,0.3357 -0.30949,0.89004 -0.47814,1.23314 -0.168,0.34233 -0.21706,0.8757 -0.10733,1.18446 0.1473,0.4152 -0.0252,0.56097 -0.66487,0.56097 -1.23412,0 -4.32362,1.32193 -5.22998,2.23771 -1.05803,1.06895 -1.34597,0.46711 -1.41872,-2.96653 -0.0515,-2.58336 -0.0701,-2.63338 -0.27456,-0.91104 -0.20545,1.72931 -0.22418,1.75713 -0.36698,0.54662 -0.13898,-1.17672 -0.23524,-1.27147 -1.24285,-1.22188 l -1.09209,0.0552 v -3.59686 -3.59675 l 1.09209,-0.3092 c 1.02911,-0.29263 1.09819,-0.25067 1.19743,0.71778 0.057,0.5665 0.22735,1.02809 0.37662,1.02809 0.64735,0 1.04215,-3.63121 1.18844,-10.93381 0.0854,-4.30979 0.25518,-8.28795 0.37531,-8.84032 0.12978,-0.59741 0.0515,-1.22321 -0.19504,-1.54422 -0.25517,-0.33349 -0.30697,-0.78625 -0.13438,-1.18257 0.15321,-0.35337 0.30237,-1.54445 0.33085,-2.64696 0.0318,-1.10208 0.30434,-5.9407 0.61186,-10.75161 0.54013,-8.44156 0.53816,-8.7661 -0.057,-9.29373 -0.59313,-0.52674 -0.58799,-0.59189 0.15508,-1.78507 0.84436,-1.35638 1.00984,-2.5818 0.35078,-2.60013 -0.25649,-0.007 -0.19122,-0.19878 0.16799,-0.49583 0.68305,-0.56208 0.7768,-1.54996 0.168,-1.77203 -0.32636,-0.11927 -0.31464,-0.29264 0.0515,-0.77079 0.37028,-0.48589 0.38769,-0.81054 0.0843,-1.53418 -0.21191,-0.50465 -0.38571,-1.29974 -0.38571,-1.76696 0,-1.50535 -0.81524,-1.83686 -4.56681,-1.8564 -3.2107,-0.0103 -3.53341,-0.0773 -4.34861,-0.91545 l -0.8805,-0.89668 0.77416,-0.19766 c 0.58011,-0.14908 0.88686,-0.63165 1.22308,-1.92211 0.28233,-1.08551 0.58668,-1.63136 0.8206,-1.47455 0.23513,0.15681 0.29789,0.0442 0.17063,-0.31913 -0.11423,-0.32245 0.14084,-1.01815 0.58919,-1.60872 0.43478,-0.57202 1.42445,-2.353 2.19967,-3.95664 0.77526,-1.60363 1.61839,-3.17469 1.87385,-3.49096 0.25518,-0.31692 0.46457,-1.00489 0.46457,-1.53196 0,-1.19726 0.67429,-2.85435 1.05715,-2.59782 0.15771,0.11043 0.28683,-0.0663 0.28683,-0.37546 0,-0.31251 0.54078,-1.38399 1.20214,-2.38226 1.10936,-1.67475 2.80619,-6.06802 3.52282,-9.12069 0.45734,-1.94795 0.35921,-6.83031 -0.19122,-9.47594 -0.83001,-3.99462 -1.19457,-8.52891 -0.84578,-10.52335 0.37213,-2.12993 3.08111,-8.59671 4.08741,-9.75863 0.66882,-0.77189 0.94545,-0.80281 7.46429,-0.83815 6.96056,-0.0442 14.05698,-0.56429 15.00592,-1.11477 1.0969,-0.63607 1.31183,0.0552 0.96505,3.07917 -0.18157,1.58553 -0.39852,3.0032 -0.48263,3.15051 -0.0843,0.14687 -0.38637,1.63544 -0.67122,3.30699 -0.28551,1.67166 -0.83473,4.40851 -1.22108,6.08216 -0.65709,2.84705 -0.6675,3.12213 -0.16274,4.27069 0.60146,1.36809 2.82583,3.07564 3.99863,3.06968 0.41934,-0.002 1.50502,-0.24847 2.41224,-0.54662 4.09187,-1.34645 5.55632,-0.46601 6.07485,3.65329 0.36764,2.92082 0.45482,3.0932 1.56109,3.0932 1.59134,0 2.30673,0.59631 2.31261,1.92619 0.006,1.52744 0.28496,1.93967 1.50696,2.23396 0.55436,0.13362 1.72636,0.81165 2.60423,1.50701 1.52569,1.20875 1.59611,1.34292 1.59611,3.03777 0,3.19921 0.32373,4.0378 2.44757,6.34133 l 2.0065,2.17631 3.2368,-0.17006 c 3.50854,-0.18331 3.83119,-0.29926 11.49395,-4.17561 2.14263,-1.0833 4.68206,-2.10476 5.64328,-2.26952 1.74366,-0.29926 3.30557,-0.26061 3.62766,0.0883 0.0986,0.0994 -0.21903,1.87728 -0.69433,3.94648 -0.70309,3.06184 -2.05642,12.12378 -3.06553,20.52724 -1.57796,13.14171 -2.23545,38.39582 -1.4897,57.22059 0.15059,3.80856 0.42449,11.35289 0.60858,16.76518 0.18421,5.41219 0.4788,10.57846 0.65567,11.48054 0.17698,0.9022 0.48329,2.46023 0.68185,3.46236 0.19844,1.00269 0.67012,5.84043 1.04828,10.7516 0.3786,4.91118 0.91807,10.48735 1.19978,12.39168 0.28145,1.90433 0.81151,6.1684 1.1763,9.47594 1.09757,9.93841 2.24124,18.70209 2.59191,19.86324 l 0.32964,1.09324 0.26065,-1.09324 c 0.14346,-0.60183 0.51691,-1.50348 0.83013,-2.0046 0.31321,-0.50024 0.80056,-1.4031 1.08201,-2.0046 5.40854,-11.53895 7.54661,-16.21845 7.40972,-16.21845 -0.0986,0 0.19932,-0.53337 0.64943,-1.18456 0.44901,-0.65042 1.02506,-1.75857 1.27903,-2.46012 0.25408,-0.70232 1.07763,-2.50561 1.83044,-4.00898 1.35833,-2.71399 4.46857,-9.34574 8.97371,-19.13419 1.29163,-2.80642 2.57351,-5.51257 2.84861,-6.01369 0.27489,-0.50024 0.87284,-1.73129 1.32766,-2.73342 0.45559,-1.00269 2.45545,-5.26642 4.44524,-9.47605 1.98979,-4.20952 5.84233,-12.40979 8.56132,-18.22305 2.7188,-5.81315 5.069,-10.73769 5.2226,-10.94331 0.1534,-0.20539 0.9824,-1.92785 1.8426,-3.82688 1.4906,-3.29263 2.4171,-5.27128 3.4093,-7.27963 0.2475,-0.50135 2.1586,-4.60132 4.247,-9.11164 2.0883,-4.51021 4.2806,-9.12919 4.8717,-10.26439 0.5903,-1.1352 1.4847,-3.1853 1.9857,-4.55571 0.5016,-1.37041 1.1218,-2.75065 1.3789,-3.06703 0.6505,-0.8006 0.5859,-1.06453 -0.2639,-1.06453 -0.7206,0 -0.7217,-0.007 -0.088,-0.68244 0.3548,-0.37546 0.7436,-0.62282 0.8608,-0.55104 0.1182,0.0663 0.1872,-1.58861 0.1544,-3.69149 -0.055,-3.43619 0,-3.80359 0.506,-3.62845 1.1288,0.38871 2.1478,-1.57349 1.9234,-3.70364 -0.099,-0.97729 -0.2202,-1.05349 -1.782,-1.16082 -2.1357,-0.14577 -2.5286,-0.52785 -2.5286,-2.45681 0,-1.3121 -0.1248,-1.61202 -0.7567,-1.82073 -0.4151,-0.13693 -0.9922,-0.47374 -1.2818,-0.7487 -0.2891,-0.27497 -1.4989,-1.01373 -2.6882,-1.64262 -9.8891,-5.23053 -10.42,-5.58589 -8.8362,-5.91386 0.5289,-0.11043 2.6245,-0.29816 4.6576,-0.41963 2.0329,-0.12147 4.4522,-0.37766 5.3763,-0.5687 0.9243,-0.19104 4.0866,-0.57092 7.0277,-0.84367 5.6335,-0.52233 6.2454,-0.76858 6.2454,-2.50826 0,-0.37436 0.1511,-0.57975 0.3362,-0.45607 0.6494,0.43508 0.3264,-0.94306 -0.5793,-2.46785 -3.3488,-5.63691 -8.4835,-11.92147 -11.7077,-14.33013 -1.0043,-0.74981 -1.826,-1.50867 -1.826,-1.68557 0,-0.17669 -0.5672,-0.60404 -1.2599,-0.94858 -0.6933,-0.34454 -2.3626,-1.33143 -3.7101,-2.19365 -1.3474,-0.86244 -3.2375,-1.86535 -4.2002,-2.2291 -0.9627,-0.36331 -2.1286,-0.83705 -2.5906,-1.05017 -0.4611,-0.21423 -2.1424,-0.80502 -3.7338,-1.31465 l -2.8937,-0.92538 -1.01519,-2.46387 c -0.55744,-1.35507 -1.28276,-3.52984 -1.61065,-4.83278 -0.32745,-1.30294 -0.71404,-2.62597 -0.8597,-2.94025 -0.82356,-1.78783 -2.14629,-13.72819 -2.4814,-22.38973 -0.28912,-7.4894 -0.83889,-13.75868 -1.25122,-14.30049 -0.56948,-0.74682 -0.0876,-1.40727 1.97391,-2.6757 2.45403,-1.51343 7.94105,-5.60539 8.50545,-6.34294 0.2321,-0.30445 0.61,-0.5538 0.8367,-0.5538 0.7162,0 6.2051,-5.8415 8.0995,-8.61988 2.1348,-3.13097 2.7483,-5.30962 2.1491,-7.6314 -0.3165,-1.22583 -0.6944,-1.69101 -2.1204,-2.61614 -2.5008,-1.62131 -4.2271,-2.00364 -8.96,-1.98391 -4.06193,0.0102 -10.56859,0.84908 -11.70853,1.4981 -0.30665,0.17469 -1.20785,0.4332 -2.00414,0.57621 -1.41352,0.25442 -1.44243,0.28711 -1.22767,1.409 0.12156,0.63143 0.43259,1.62511 0.69104,2.20716 0.25956,0.5813 0.47202,1.57831 0.47202,2.21401 0,1.46775 -1.41987,6.02223 -2.50134,8.02383 -0.97688,1.80828 -4.15754,5.08668 -6.84462,7.05537 -2.03688,1.49228 -7.03068,4.42729 -7.53292,4.42729 -0.16537,0 -1.91718,0.74991 -3.89219,1.66739 -3.77664,1.75363 -14.26503,5.55339 -18.54413,6.71822 -4.01028,1.0918 -8.49613,2.49711 -9.40876,2.94788 -0.46194,0.22781 -1.96961,0.55578 -3.3502,0.72739 -1.38052,0.17271 -3.27065,0.54452 -4.20028,0.82754 -3.50836,1.06895 -6.2084,1.68916 -7.35303,1.68916 -0.65129,0 -2.21415,0.27275 -3.47315,0.60691 -3.04866,0.80921 -14.59921,0.91854 -17.00291,0.16144 -1.87503,-0.59057 -2.84961,-1.7524 -3.1437,-3.74735 -0.11434,-0.77653 -0.34114,-1.50035 -0.50388,-1.60956 -0.16285,-0.10933 -1.27747,0.30445 -2.47697,0.91953 -1.19955,0.61398 -2.27617,1.11773 -2.39253,1.11773 -0.31912,0 -8.27788,4.84863 -8.85856,5.39656 -0.27784,0.2626 -1.37432,1.15073 -2.43698,1.97472 -1.06273,0.82346 -1.93219,1.71656 -1.93219,1.98368 0,0.26724 -0.19702,0.48589 -0.43872,0.48589 -0.24093,0 -1.55211,1.21482 -2.91326,2.69963 -2.57211,2.80609 -5.28095,4.56079 -9.0812,5.88228 -1.01652,0.35337 -2.37741,0.93091 -3.02425,1.28317 -0.6468,0.35227 -2.76381,1.31631 -4.70435,2.14264 -6.30905,2.68638 -6.06174,2.49026 -11.29767,8.9588 -2.37094,2.92911 -5.36818,6.82975 -6.34382,8.25582 -0.36962,0.53999 -1.62066,2.31457 -2.78009,3.94294 -2.55869,3.59344 -2.93198,5.07119 -2.66756,10.56057 0.21586,4.48116 1.83865,10.53891 3.56799,13.31806 0.75303,1.21029 0.91347,1.70964 0.59182,1.84348 -0.35275,0.14577 -0.3683,0.62061 -0.0767,2.37255 0.20096,1.20388 0.53937,2.30617 0.75336,2.4494 0.21388,0.14356 0.51428,1.23779 0.66804,2.43229 l 0.27971,2.17201 1.37857,0.29484 c 1.16112,0.24957 1.56589,0.59631 2.56541,2.19829 1.72325,2.76236 1.93523,3.3198 1.93523,5.08863 0,1.57846 -0.0131,1.59734 -1.42806,1.93735 -1.24382,0.29926 -1.44267,0.48257 -1.54101,1.41878 -0.069,0.65373 0.0843,1.23182 0.39087,1.47466 0.42251,0.33459 0.18738,0.7763 -1.46864,2.75142 -1.08464,1.29366 -1.97865,2.14705 -1.98674,1.8966 -0.006,-0.25067 0.13635,-0.45607 0.3211,-0.45607 0.18476,0 0.336,-0.24625 0.336,-0.54662 0,-0.30036 -0.15124,-0.54661 -0.336,-0.54661 -0.18486,0 -0.33599,-0.24626 -0.33599,-0.54662 0,-0.36441 -0.33599,-0.54662 -1.00809,-0.54662 -0.6721,0 -1.00809,0.18221 -1.00809,0.54662 0,0.30367 -0.2992,0.54662 -0.67199,0.54662 -0.52272,0 -0.6721,0.24183 -0.6721,1.09323 0,0.8503 0.14927,1.09324 0.6721,1.09324 0.52589,0 0.67199,0.24184 0.67199,1.11488 0,0.6449 0.14084,1.02036 0.33336,0.89116 0.18344,-0.12258 0.54977,-0.0883 0.8137,0.0663 0.56784,0.34675 0.37411,0.66257 -1.71678,2.79162 -1.08498,1.10517 -1.50347,1.33 -1.96025,1.05238 -0.68042,-0.413 -0.18738,-0.89667 0.9794,-0.96183 0.54649,-0.0331 0.73474,-0.31251 0.81557,-1.22354 0.10294,-1.16071 0.0778,-1.18456 -1.26009,-1.18456 h -1.36541 v -2.3689 c 0,-1.3364 -0.14664,-2.36901 -0.33599,-2.36901 -0.18487,0 -0.336,-0.32797 -0.336,-0.72883 0,-0.40085 0.15124,-0.72882 0.336,-0.72882 0.18486,0 0.33599,-0.4108 0.33599,-0.91103 0,-0.5665 0.1899,-0.91104 0.50388,-0.91104 0.31333,0 0.50388,-0.34453 0.50388,-0.91103 0,-0.66809 -0.17895,-0.91103 -0.67198,-0.91103 -0.41616,0 -0.6721,0.24184 -0.6721,0.63717 0,0.66478 -0.10514,0.69128 -3.66243,0.89668 -1.45036,0.0773 -1.86695,0.25177 -2.0766,0.83373 -0.389,1.08219 -0.36435,1.20654 0.2785,1.38885 0.44256,0.12589 0.40127,0.17669 -0.16799,0.20982 -0.41605,0.0221 -0.7561,0.27496 -0.7561,0.55766 0,0.2838 -0.14993,0.57091 -0.3326,0.63717 -0.18289,0.0663 -0.36764,0.99716 -0.41024,2.06644 -0.0449,1.07004 -0.13252,1.76662 -0.19899,1.54897 -0.20732,-0.67472 -0.7377,-0.43509 -0.7377,0.33349 0,0.40086 -0.15124,0.72883 -0.336,0.72883 -0.18672,0 -0.33588,0.97176 -0.33588,2.18669 v 2.18681 h 4.20034 4.20036 l 0.0383,-1.00269 c 0.0197,-0.61619 0.0986,-0.75753 0.19253,-0.36441 0.0843,0.35006 0.37082,0.63717 0.6364,0.63717 0.26557,0 -0.3521,0.82048 -1.37231,1.82239 -1.02036,1.00269 -2.01238,1.82229 -2.20446,1.82229 -0.19187,0 -0.7952,-0.25068 -1.34053,-0.55656 -0.88927,-0.49914 -1.09417,-0.49914 -1.98949,0.004 -1.29829,0.72883 -1.82735,1.77977 -1.36586,2.71499 0.48012,0.97287 0.4891,0.94636 -0.82772,2.52648 -1.4731,1.76861 -2.18475,3.91655 -2.18475,6.59421 0,2.30684 0.16669,2.68991 0.96856,2.22457 0.49621,-0.28822 0.53553,0.52453 0.4477,9.21544 -0.0515,5.24224 -0.17183,9.91213 -0.26492,10.37736 -0.14401,0.72662 -0.30949,0.81275 -1.16402,0.60846 l -0.99561,-0.23742 v 2.21562 c 0,2.10443 0.0383,2.21585 0.81776,2.21585 0.63453,0 0.84918,-0.22417 0.95771,-1.00268 0.0767,-0.55104 0.16274,5.36503 0.1899,13.14733 0.0449,13.29587 0.0131,14.1423 -0.5375,14.02779 -0.50454,-0.0994 -0.61833,-0.71779 -0.7987,-4.30913 -0.23261,-4.62572 -0.45033,-5.55475 -1.2597,-5.38292 -0.45416,0.0883 -0.55766,0.72441 -0.61438,3.75367 -0.0383,2.00073 -0.2416,7.73791 -0.45285,12.74935 -0.42963,10.19947 -0.27127,23.602 0.28682,24.33193 0.35603,0.4649 0.71886,2.56028 1.40113,8.08764 0.19647,1.59403 0.4684,2.98818 0.60343,3.09795 0.13504,0.11043 0.28748,1.01262 0.33797,2.00703 0.0515,0.99385 0.39086,2.35653 0.75609,3.02771 0.36502,0.6714 0.66378,1.45677 0.66378,1.74598 0,0.29042 0.1577,0.52674 0.35089,0.52674 0.19252,0 0.32624,0.20429 0.29656,0.45607 -0.14467,1.20764 0.069,1.73118 0.70364,1.73118 0.53236,0 0.64023,0.17668 0.4995,0.82048 -0.0986,0.45054 -0.0515,1.3121 0.10185,1.91338 0.23524,0.91435 0.45416,1.09545 1.33852,1.10583 0.98926,0.0103 3.09391,1.65388 3.09391,2.41407 0,0.15791 0.48329,1.02919 1.07457,1.93922 1.13656,1.74874 2.00973,2.20083 5.0677,2.62344 0.88324,0.12147 1.68604,0.36331 1.78399,0.53447 0.28101,0.49362 2.57322,0.34012 3.49866,-0.23521 0.95574,-0.593 1.81364,-0.71116 1.52906,-0.21202 -0.2681,0.47153 1.23908,0.72441 4.18334,0.70453 1.66777,-0.0103 2.29291,-0.11926 1.84822,-0.32135 z m 104.6704,-14.13424 c -8.8e-4,-0.53999 -0.14566,-1.55482 -0.32088,-2.25648 -0.17523,-0.70233 -0.70419,-5.37575 -1.17467,-10.38708 -1.35131,-14.39937 -2.50495,-25.37095 -2.85485,-27.15237 -0.44704,-2.27471 -0.4304,-8.48408 0.0219,-9.72562 0.37564,-1.02256 1.22548,-5.96687 2.8047,-16.31662 0.45668,-2.99768 0.92322,-5.70372 1.03492,-6.01358 0.11171,-0.3092 0.64067,-3.26955 1.17499,-6.57709 0.53444,-3.30754 1.36807,-8.30971 1.8529,-11.11602 0.48406,-2.8063 1.09406,-6.41454 1.35394,-8.01817 0.26065,-1.60353 0.81261,-4.88379 1.22953,-7.28925 0.82904,-4.79224 0.96045,-10.58717 0.29679,-13.17218 -0.21246,-0.82932 -0.60562,-3.20142 -0.87284,-5.26929 l -0.48625,-3.75975 1.74239,-3.61386 1.74251,-3.61387 2.11157,0.21423 c 2.26139,0.22859 4.69701,0.88122 5.37711,1.4402 0.22998,0.18883 0.58481,1.02036 0.7896,1.84956 0.2048,0.82821 0.73485,2.44455 1.17861,3.59123 1.00973,2.61063 1.00754,3.35911 -0.0219,6.19954 -0.45559,1.25689 -1.38012,3.82953 -2.05561,5.7173 l -1.22833,3.43221 0.38659,20.25769 c 0.21246,11.14185 0.53553,26.32615 0.71842,33.74293 0.34936,14.10873 0.28475,15.30897 -1.04039,19.31651 -0.39645,1.20267 -1.63003,4.9749 -2.73888,8.38248 -1.10874,3.40781 -2.46103,7.508 -3.00511,9.11164 -1.86253,5.49059 -3.64994,11.17399 -3.64994,11.60609 0,0.23742 -0.28036,1.00379 -0.62314,1.70214 -0.34278,0.69901 -1.0163,2.59429 -1.49784,4.21272 -1.29382,4.35296 -1.53979,4.95998 -1.91039,4.71163 -0.18509,-0.12478 -0.33841,-0.66588 -0.33841,-1.20654 z m -65.52328,-83.67903 c 0,-0.0773 0.52907,-0.83484 1.1761,-1.67453 l 1.17609,-1.52678 v 1.2919 c 0,0.84588 -0.20282,1.42021 -0.58799,1.66349 -0.58141,0.36662 -1.76414,0.53226 -1.76414,0.24625 z m -50.50255,-37.8735 c -0.0931,-0.26502 0.0931,-0.66035 0.41605,-0.879 0.50651,-0.34343 0.56532,-0.27828 0.4316,0.48146 -0.1692,0.96294 -0.57945,1.1542 -0.8471,0.39754 z m 58.23114,-1.11929 c 0,-0.0773 0.23458,-0.24074 0.5214,-0.3611 0.2992,-0.12479 0.43423,-0.0663 0.31596,0.14355 -0.19702,0.34675 -0.83769,0.51128 -0.83769,0.21755 z"
       id="path14163" />
  </g>
</svg>
